Coordinates
version=1
nRows=7
nColumns=60
inDegrees=yes

Units are S.I. units (second, meters, Newtons, ...)
If the header above contains a line with 'inDegrees', this indicates whether rotational values are in degrees (yes) or radians (no).

endheader
time	pelvis_tilt	pelvis_list	pelvis_rotation	pelvis_tx	pelvis_ty	pelvis_tz	hip_flexion_r	hip_adduction_r	hip_rotation_r	knee_angle_r_beta	knee_angle_r	ankle_angle_r	subtalar_angle_r	mtp_angle_r	hip_flexion_l	hip_adduction_l	hip_rotation_l	knee_angle_l_beta	knee_angle_l	ankle_angle_l	subtalar_angle_l	mtp_angle_l	L5_S1_Flex_Ext	L5_S1_Lat_Bending	L5_S1_axial_rotation	L4_L5_Flex_Ext	L4_L5_Lat_Bending	L4_L5_axial_rotation	L3_L4_Flex_Ext	L3_L4_Lat_Bending	L3_L4_axial_rotation	L2_L3_Flex_Ext	L2_L3_Lat_Bending	L2_L3_axial_rotation	L1_L2_Flex_Ext	L1_L2_Lat_Bending	L1_L2_axial_rotation	L1_T12_Flex_Ext	L1_T12_Lat_Bending	L1_T12_axial_rotation	Abs_r3	Abs_r2	Abs_r1	Abs_t1	Abs_t2	arm_flex_r	arm_add_r	arm_rot_r	elbow_flex_r	pro_sup_r	wrist_flex_r	wrist_dev_r	arm_flex_l	arm_add_l	arm_rot_l	elbow_flex_l	pro_sup_l	wrist_flex_l	wrist_dev_l
     68.58000000	      0.88539205	      6.46263364	     91.49900793	      0.40590531	      0.94186910	      0.27830860	      2.03394531	     -3.83726709	      0.08342763	      0.22582865	    -12.93902861	      6.62287362	      0.00000000	      0.00000000	      2.58398827	     -6.63237594	     -2.18042955	      0.21364223	    -12.24079819	      7.56329926	      0.00000000	      0.00000000	     -6.18925414	      0.12652745	     -0.25281225	    -11.49406386	      0.16828151	     -0.26861302	    -10.16832562	      0.30763885	     -0.26861302	     -7.07369855	      0.30763885	     -0.22121072	     -5.74734139	      0.25801478	     -0.20540995	     -3.53653981	      0.19599102	     -0.18960919	    -44.20922337	      1.43130386	     -1.40606590	      0.00000000	      0.00000000	     47.24008730	    -25.59525669	     12.01684676	     79.17954695	     63.49620915	      2.87304183	     23.76595532	     50.73806140	    -25.62567193	     15.23955615	     72.06999484	     57.37184773	      7.07542555	     16.31785029
     68.59000000	      0.87917152	      6.79328731	     91.48303496	      0.40575460	      0.94205199	      0.27642606	      1.51844136	     -3.85204938	      0.06393377	      0.22509693	    -12.89710411	      6.86780639	      0.00000000	      0.00000000	      2.13036216	     -6.63613518	     -2.25258047	      0.21504729	    -12.32130222	      7.86006862	      0.00000000	      0.00000000	     -6.19620203	      0.12550860	     -0.24495438	    -11.50696680	      0.16692644	     -0.26026403	    -10.17974032	      0.30516162	     -0.26026403	     -7.08163930	      0.30516162	     -0.21433508	     -5.75379321	      0.25593714	     -0.19902543	     -3.54050984	      0.19441282	     -0.18371579	    -44.25885151	      1.41977841	     -1.36236278	      0.00000000	      0.00000000	     45.14075065	    -25.79390790	     10.86775973	     81.31349490	     63.78955547	      2.73596795	     23.77318081	     48.68466599	    -25.78519113	     14.16979962	     74.23624687	     57.71140803	      6.94204564	     16.27833408
     68.60000000	      0.90545181	      7.13158993	     91.44489719	      0.40552295	      0.94230214	      0.27456116	      1.05615657	     -3.83038933	      0.06407541	      0.22623437	    -12.96227453	      6.97979093	      0.00000000	      0.00000000	      1.68389874	     -6.66062620	     -2.34281032	      0.21728036	    -12.44924763	      8.02248072	      0.00000000	      0.00000000	     -6.20281621	      0.12949819	     -0.24606845	    -11.51924999	      0.17223259	     -0.26144773	    -10.19060676	      0.31486190	     -0.26144773	     -7.08919865	      0.31486190	     -0.21530990	     -5.75993514	      0.26407271	     -0.19993062	     -3.54428918	      0.20059269	     -0.18455134	    -44.30609593	      1.46490941	     -1.36855892	      0.00000000	      0.00000000	     43.19696202	    -25.75456337	      9.62555267	     83.18790578	     66.47290390	      1.93575259	     24.93421228	     46.54610850	    -25.73049321	     12.71439873	     76.25091932	     60.45285416	      5.97371218	     17.33275461
     68.61000000	      0.89422511	      7.50452322	     91.37142598	      0.40537200	      0.94259554	      0.27268261	      0.52320000	     -3.84867082	     -0.00991378	      0.22581202	    -12.93807579	      7.22362537	      0.00000000	      0.00000000	      1.16134221	     -6.64923667	     -2.46862336	      0.21860977	    -12.52541696	      8.33185765	      0.00000000	      0.00000000	     -6.19903006	      0.12300618	     -0.24515517	    -11.51221872	      0.16359822	     -0.26047737	    -10.18438649	      0.29907723	     -0.26047737	     -7.08487146	      0.29907723	     -0.21451077	     -5.75641931	      0.25083421	     -0.19918857	     -3.54212578	      0.19053658	     -0.18386638	    -44.27905182	      1.39147054	     -1.36347950	      0.00000000	      0.00000000	     41.36788263	    -25.68539712	      8.74243525	     84.56662156	     66.10775977	      1.87624457	     24.98602510	     44.58093830	    -25.66423427	     11.67368033	     77.80333096	     60.11169883	      5.90128593	     17.38617410
     68.62000000	      0.89573239	      7.81346108	     91.32768910	      0.40513736	      0.94280024	      0.27096211	      0.12260273	     -3.85491142	      0.03919059	      0.22762730	    -13.04208363	      7.40798326	      0.00000000	      0.00000000	      0.78043605	     -6.64952027	     -2.54121769	      0.22153515	    -12.69302932	      8.57039422	      0.00000000	      0.00000000	     -6.20497847	      0.12183267	     -0.24098587	    -11.52326551	      0.16203744	     -0.25604749	    -10.19415912	      0.29622394	     -0.25604749	     -7.09166989	      0.29622394	     -0.21086264	     -5.76194300	      0.24844117	     -0.19580102	     -3.54552470	      0.18871880	     -0.18073940	    -44.32154068	      1.37819547	     -1.34029112	      0.00000000	      0.00000000	     39.44549405	    -25.84401389	      7.86755885	     86.32449487	     66.30979457	      1.75275250	     25.00462559	     42.54751776	    -25.69260789	     10.62992703	     79.72758177	     60.44850598	      5.73510749	     17.38983915
     68.63000000	      0.89235130	      8.14485869	     91.25557747	      0.40489379	      0.94305265	      0.26915770	     -0.32752408	     -3.87319312	     -0.04598946	      0.22858866	    -13.09716520	      7.62522009	      0.00000000	      0.00000000	      0.34396435	     -6.64186368	     -2.69766857	      0.22370772	    -12.81750818	      8.83557516	      0.00000000	      0.00000000	     -6.19944348	      0.11685501	     -0.23293958	    -11.51298649	      0.15541716	     -0.24749830	    -10.18506569	      0.28412127	     -0.24749830	     -7.08534395	      0.28412127	     -0.20382213	     -5.75680322	      0.23829074	     -0.18926340	     -3.54236200	      0.18100841	     -0.17470468	    -44.28200483	      1.32188724	     -1.29554004	      0.00000000	      0.00000000	     37.68131165	    -25.91295168	      7.12994230	     87.56216984	     67.05111892	      1.64052328	     25.06256684	     40.58067632	    -25.58626270	      9.74104081	     81.25077341	     61.18334059	      5.56860386	     17.43833809
     68.64000000	      0.88237492	      8.47352260	     91.17852378	      0.40465513	      0.94334167	      0.26759107	     -0.70649310	     -3.89755322	      0.01702467	      0.23114239	    -13.24348325	      7.77856974	      0.00000000	      0.00000000	     -0.04105414	     -6.62256516	     -2.75038108	      0.22743184	    -13.03088432	      9.03551620	      0.00000000	      0.00000000	     -6.20819595	      0.11291039	     -0.23513160	    -11.52924071	      0.15017082	     -0.24982732	    -10.19944513	      0.27453033	     -0.24982732	     -7.09534716	      0.27453033	     -0.20574015	     -5.76493076	      0.23024687	     -0.19104442	     -3.54736317	      0.17489820	     -0.17634870	    -44.34452288	      1.27726495	     -1.30773139	      0.00000000	      0.00000000	     35.94952982	    -25.94542881	      6.40181096	     88.93508877	     67.86610798	      1.51742244	     25.12934517	     38.61926762	    -25.51956168	      8.72912455	     82.80267802	     62.05174656	      5.35118231	     17.49724860
